<svg width="100" height="18" viewBox="0 0 100 18" fill="none" xmlns="http://www.w3.org/2000/svg">
<path d="M8.57143 0L10.4958 5.92271H16.7233L11.6852 9.58315L13.6096 15.5059L8.57143 11.8454L3.53327 15.5059L5.45767 9.58315L0.419516 5.92271H6.64702L8.57143 0Z" fill="#C8B178"/>
<path d="M29.2863 0L31.2107 5.92271H37.4382L32.4 9.58315L34.3244 15.5059L29.2863 11.8454L24.2481 15.5059L26.1725 9.58315L21.1344 5.92271H27.3619L29.2863 0Z" fill="#C8B178"/>
<path d="M49.9992 0L51.9236 5.92271H58.1511L53.1129 9.58315L55.0373 15.5059L49.9992 11.8454L44.961 15.5059L46.8854 9.58315L41.8472 5.92271H48.0748L49.9992 0Z" fill="#C8B178"/>
<path d="M70.714 0L72.6384 5.92271H78.8659L73.8278 9.58315L75.7522 15.5059L70.714 11.8454L65.6758 15.5059L67.6003 9.58315L62.5621 5.92271H68.7896L70.714 0Z" fill="#C8B178"/>
<path d="M91.4289 0L93.3533 5.92271H99.5808L94.5426 9.58315L96.467 15.5059L91.4289 11.8454L86.3907 15.5059L88.3151 9.58315L83.2769 5.92271H89.5044L91.4289 0Z" fill="#C8B178"/>
</svg>
