<svg width="62" height="62" viewBox="0 0 62 62" fill="none" xmlns="http://www.w3.org/2000/svg">
<path d="M32 39H23.65C22.824 36.673 20.607 35 18 35C14.691 35 12 37.691 12 41C12 44.309 14.691 47 18 47C18.341 47 18.674 46.965 19 46.91V50H32V39ZM18 45C15.794 45 14 43.206 14 41C14 38.794 15.794 37 18 37C19.474 37 20.75 37.81 21.444 39H19V44.858C18.678 44.942 18.347 45 18 45ZM22 41C22 42.005 21.615 42.914 21 43.618V41H22ZM30 48H21V46.188C22.79 45.149 24 43.215 24 41H30V48Z" fill="#FF9533"/>
<path d="M21.94 17.045C20.673 15.782 18.926 15 17 15C13.14 15 10 18.14 10 22C10 25.86 13.14 29 17 29C20.86 29 24 25.86 24 22C24 20.785 23.688 19.641 23.141 18.644L25.333 17H36V15H24.667L21.94 17.045ZM21.339 24.437L18 22.434V17.101C20.279 17.566 22 19.585 22 22C22 22.889 21.747 23.713 21.339 24.437ZM12 22C12 19.586 13.721 17.566 16 17.101V23.566L20.006 25.969C19.166 26.607 18.133 27 17 27C14.243 27 12 24.757 12 22Z" fill="#FF9533"/>
<path d="M36 19H34V21H36V19Z" fill="#FF9533"/>
<path d="M32 19H27V21H32V19Z" fill="#FF9533"/>
<path d="M59.575 27.839L61.414 26L57 21.586L55.161 23.425C52.729 21.843 49.922 21 47 21C45.973 21 44.97 21.105 44 21.302V6H36V2H26.89C25.584 0.724 23.827 0 22 0C20.173 0 18.416 0.724 17.11 2H8V6H0V62H44V50.698C44.97 50.895 45.973 51 47 51C55.271 51 62 44.271 62 36C62 33.079 61.157 30.271 59.575 27.839ZM58.586 26L43 41.586L37.414 36L39 34.414L43 38.414L57 24.414L58.586 26ZM42 8V21.875C41.349 22.106 40.717 22.375 40.111 22.69V10H36V8H42ZM32.875 31H8V54H30V52H10V33H32.302C32.105 33.97 32 34.973 32 36C32 38.713 32.735 41.253 34 43.451V52H32V54H36V46.163C36.643 46.858 37.349 47.491 38.111 48.054V56H5.889V12H8V13H36V12H38.111V23.945C35.726 25.709 33.886 28.155 32.875 31ZM10 4H17.983L18.281 3.668C19.232 2.608 20.587 2 22 2C23.413 2 24.768 2.608 25.719 3.668L26.017 4H34V10V11H10V8V6V4ZM42 60H2V8H8V10H3.889V58H40.112V49.31C40.718 49.625 41.35 49.894 42.001 50.125L42 60ZM47 49C44.469 49 42.111 48.261 40.111 47.005V47H40.103C36.444 44.698 34 40.634 34 36C34 28.832 39.832 23 47 23C49.39 23 51.693 23.647 53.715 24.871L43 35.586L39 31.586L34.586 36L43 44.414L58.129 29.285C59.353 31.308 60 33.611 60 36C60 43.168 54.168 49 47 49Z" fill="#FF9533"/>
</svg>
