<svg width="62" height="62" viewBox="0 0 62 62" fill="none" xmlns="http://www.w3.org/2000/svg">
<path d="M35 20C35 17.794 33.206 16 31 16C28.794 16 27 17.794 27 20C27 22.206 28.794 24 31 24C33.206 24 35 22.206 35 20ZM29 20C29 18.897 29.897 18 31 18C32.103 18 33 18.897 33 20C33 21.103 32.103 22 31 22C29.897 22 29 21.103 29 20Z" fill="#FC2F2F"/>
<path d="M26 40V46H36V40H34V26H26V32H28V40H26ZM28 30V28H32V42H34V44H28V42H30V30H28Z" fill="#FC2F2F"/>
<path d="M31 0C13.907 0 0 13.907 0 31C0 48.093 13.907 62 31 62C48.093 62 62 48.093 62 31C62 13.907 48.093 0 31 0ZM31 60C15.009 60 2 46.991 2 31C2 15.009 15.009 2 31 2C46.991 2 60 15.009 60 31C60 46.991 46.991 60 31 60Z" fill="#FC2F2F"/>
<path d="M31 6C25.764 6 20.746 7.607 16.488 10.649L17.65 12.277C21.567 9.479 26.184 8 31 8C43.682 8 54 18.318 54 31C54 35.816 52.521 40.433 49.723 44.35L51.351 45.512C54.393 41.254 56 36.236 56 31C56 17.215 44.785 6 31 6Z" fill="#FC2F2F"/>
<path d="M31 54C18.318 54 8 43.682 8 31C8 26.183 9.479 21.567 12.277 17.65L10.65 16.488C7.608 20.746 6 25.764 6 31C6 44.785 17.215 56 31 56C36.236 56 41.254 54.393 45.512 51.351L44.35 49.723C40.433 52.521 35.816 54 31 54Z" fill="#FC2F2F"/>
</svg>
